# xmcd
#
# Track frame offsets:
#	150
#	77238
#	84383
#	112767
#	153596
#	194889
#	218892
#
# Disc length: 3180 seconds
#
# Revision: 1
# Processed by: cddbd v1.5.2PL0 Copyright (c) Steve Scherf et al.
# Submitted via: audiograbber 1.83.01
#
DISCID=590c6a07
DTITLE=Grateful Dead - 71-02-24 Capitol Theatre, Port Chester NY
DYEAR=1900
DGENRE=
TTITLE0=Good Lovin' > Drums > Good Lovin'
TTITLE1=Tuning
TTITLE2=Sugar Magnolia
TTITLE3=I'm A King Bee
TTITLE4=Greatest Story Ever Told > Johnny B Goode
TTITLE5=Deal
TTITLE6=New Minglewood Blues
EXTD=
EXTT0=
EXTT1=
EXTT2=
EXTT3=
EXTT4=
EXTT5=
EXTT6=
PLAYORDER=
